<svg class="speedometer" width="659px" height="340px" role="img" focusable="false" aria-label="React d3 speedometer"
	style="width: 659px; height: 340px;">
	<g class="arc" transform="translate(329.5, 329.5)">
		<path class="speedo-segment" fill="rgb(255, 71, 26)"
			d="M-289.5,-3.5453524835315876e-14A289.5,289.5,0,0,1,-275.33086146744694,-89.4604198715473L-170.8731540943626,-55.52005332269891A179.66666666666669,179.66666666666669,0,0,0,-179.66666666666669,-2.2002820824680783e-14Z">
		</path>
		<path class="speedo-segment" fill="rgb(250, 112, 28)"
			d="M-275.33086146744694,-89.4604198715473A289.5,289.5,0,0,1,-234.21041987154726,-170.163830538671L-145.35338665603223,-105.60541699521437A179.66666666666669,179.66666666666669,0,0,0,-170.8731540943626,-55.52005332269891Z">
		</path>
		<path class="speedo-segment" fill="rgb(246, 150, 30)"
			d="M-234.21041987154726,-170.163830538671A289.5,289.5,0,0,1,-170.16383053867094,-234.2104198715473L-105.60541699521433,-145.35338665603223A179.66666666666669,179.66666666666669,0,0,0,-145.35338665603223,-105.60541699521437Z">
		</path>
		<path class="speedo-segment" fill="rgb(241, 186, 32)"
			d="M-170.16383053867094,-234.2104198715473A289.5,289.5,0,0,1,-89.46041987154726,-275.330861467447L-55.52005332269888,-170.87315409436263A179.66666666666669,179.66666666666669,0,0,0,-105.60541699521433,-145.35338665603223Z">
		</path>
		<path class="speedo-segment" fill="rgb(236, 219, 35)"
			d="M-89.46041987154726,-275.330861467447A289.5,289.5,0,0,1,1.7726762417657938e-14,-289.5L1.1001410412340391e-14,-179.66666666666669A179.66666666666669,179.66666666666669,0,0,0,-55.52005332269888,-170.87315409436263Z">
		</path>
		<path class="speedo-segment" fill="rgb(212, 231, 37)"
			d="M1.7726762417657938e-14,-289.5A289.5,289.5,0,0,1,89.46041987154729,-275.33086146744694L55.5200533226989,-170.8731540943626A179.66666666666669,179.66666666666669,0,0,0,1.1001410412340391e-14,-179.66666666666669Z">
		</path>
		<path class="speedo-segment" fill="rgb(174, 226, 40)"
			d="M89.46041987154729,-275.33086146744694A289.5,289.5,0,0,1,170.16383053867094,-234.21041987154732L105.60541699521433,-145.35338665603226A179.66666666666669,179.66666666666669,0,0,0,55.5200533226989,-170.8731540943626Z">
		</path>
		<path class="speedo-segment" fill="rgb(139, 220, 42)"
			d="M170.16383053867094,-234.21041987154732A289.5,289.5,0,0,1,234.2104198715473,-170.16383053867096L145.35338665603223,-105.60541699521436A179.66666666666669,179.66666666666669,0,0,0,105.60541699521433,-145.35338665603226Z">
		</path>
		<path class="speedo-segment" fill="rgb(106, 215, 45)"
			d="M234.2104198715473,-170.16383053867096A289.5,289.5,0,0,1,275.33086146744694,-89.4604198715474L170.87315409436258,-55.52005332269897A179.66666666666669,179.66666666666669,0,0,0,145.35338665603223,-105.60541699521436Z">
		</path>
		<path class="speedo-segment" fill="rgb(77, 210, 48)"
			d="M275.33086146744694,-89.4604198715474A289.5,289.5,0,0,1,289.5,-1.928457393773897e-13L179.66666666666669,-1.1968204205459188e-13A179.66666666666669,179.66666666666669,0,0,0,170.87315409436258,-55.52005332269897Z">
		</path>
	</g>



</svg>

