<?xml version="1.0" encoding="UTF-8" standalone="no" ?>
<!DOCTYPE svg PUBLIC "-//W3C//DTD SVG 1.1//EN" "http://www.w3.org/Graphics/SVG/1.1/DTD/svg11.dtd">
<svg xmlns="http://www.w3.org/2000/svg" xmlns:xlink="http://www.w3.org/1999/xlink" version="1.1" width="1080" height="1080" viewBox="0 0 1080 1080" xml:space="preserve">
<desc>Created with Fabric.js 5.2.4</desc>
<defs>
</defs>
<g transform="matrix(1 0 0 1 540 540)" id="3ea84647-33e8-486b-b11b-a6dbed444a7c"  >
<rect style="stroke: none; stroke-width: 1; stroke-dasharray: none; stroke-linecap: butt; stroke-dashoffset: 0; stroke-linejoin: miter; stroke-miterlimit: 4; fill: rgb(255,255,255); fill-rule: nonzero; opacity: 1; visibility: hidden;" vector-effect="non-scaling-stroke"  x="-540" y="-540" rx="0" ry="0" width="1080" height="1080" />
</g>
<g transform="matrix(1 0 0 1 540 540)" id="58257408-ef03-410c-9709-6a45d924bb35"  >
</g>
<g transform="matrix(1 0 0 1 540 540)"  >
<g style="" vector-effect="non-scaling-stroke"   >
		<g transform="matrix(1 0 0 1 -233.12 75.87)"  >
<path style="stroke: none; stroke-width: 1; stroke-dasharray: none; stroke-linecap: butt; stroke-dashoffset: 0; stroke-linejoin: miter; stroke-miterlimit: 4; fill: rgb(255,71,26); fill-rule: nonzero; opacity: 1;" vector-effect="non-scaling-stroke"  transform=" translate(232.19, 56.45)" d="M -295 -3.612708057484692e-14 C -295 -38.73995198715135 -287.3695998869314 -77.10056381630257 -272.54446209082954 -112.89161254770161 L -169.3779142937359 -70.15862926693313 C -178.59127676588955 -47.91560463160044 -183.33333333333331 -24.075676376195716 -183.33333333333331 -4.263256414560601e-14 Z" stroke-linecap="round" />
</g>
		<g transform="matrix(1 0 0 1 -202.02 -7.06)"  >
<path style="stroke: none; stroke-width: 1; stroke-dasharray: none; stroke-linecap: butt; stroke-dashoffset: 0; stroke-linejoin: miter; stroke-miterlimit: 4; fill: rgb(249,122,29); fill-rule: nonzero; opacity: 1;" vector-effect="non-scaling-stroke"  transform=" translate(201.09, 139.38)" d="M -272.5444620908296 -112.89161254770151 C -257.71932429472776 -148.68266127910056 -235.9897832029875 -181.20321769707556 -208.59650045003153 -208.5965004500315 L -129.6362432175337 -129.63624321753372 C -146.66031724479444 -112.61216919027295 -160.16455182158228 -92.40165390226576 -169.37791429373596 -70.15862926693302 Z" stroke-linecap="round" />
</g>
		<g transform="matrix(1 0 0 1 -140.3 -68.78)"  >
<path style="stroke: none; stroke-width: 1; stroke-dasharray: none; stroke-linecap: butt; stroke-dashoffset: 0; stroke-linejoin: miter; stroke-miterlimit: 4; fill: rgb(243,168,31); fill-rule: nonzero; opacity: 1;" vector-effect="non-scaling-stroke"  transform=" translate(139.38, 201.09)" d="M -208.5965004500315 -208.59650045003153 C -181.2032176970756 -235.98978320298744 -148.6826612791006 -257.7193242947277 -112.89161254770163 -272.5444620908295 L -70.1586292669331 -169.3779142937359 C -92.40165390226579 -160.16455182158222 -112.612169190273 -146.6603172447944 -129.63624321753372 -129.6362432175337 Z" stroke-linecap="round" />
</g>
		<g transform="matrix(1 0 0 1 -57.37 -99.87)"  >
<path style="stroke: none; stroke-width: 1; stroke-dasharray: none; stroke-linecap: butt; stroke-dashoffset: 0; stroke-linejoin: miter; stroke-miterlimit: 4; fill: rgb(237,211,34); fill-rule: nonzero; opacity: 1;" vector-effect="non-scaling-stroke"  transform=" translate(56.45, 232.19)" d="M -112.89161254770147 -272.5444620908296 C -77.10056381630244 -287.36959988693144 -38.7399519871513 -295.00000000000006 0 -295.00000000000006 L 1.122592899218407e-14 -183.33333333333331 C -24.07567637619572 -183.33333333333331 -47.915604631600495 -178.59127676588955 -70.15862926693323 -169.37791429373584 Z" stroke-linecap="round" />
</g>
		<g transform="matrix(1 0 0 1 55.52 -99.87)"  >
<path style="stroke: none; stroke-width: 1; stroke-dasharray: none; stroke-linecap: butt; stroke-dashoffset: 0; stroke-linejoin: miter; stroke-miterlimit: 4; fill: rgb(212,231,37); fill-rule: nonzero; opacity: 1;" vector-effect="non-scaling-stroke"  transform=" translate(-56.45, 232.19)" d="M 1.806354028742346e-14 -295 C 38.739951987151315 -295 77.10056381630257 -287.36959988693144 112.8916125477016 -272.5444620908296 L 70.15862926693313 -169.3779142937359 C 47.91560463160039 -178.59127676588957 24.075676376195574 -183.33333333333334 -1.5631940186722204e-13 -183.33333333333331 Z" stroke-linecap="round" />
</g>
		<g transform="matrix(1 0 0 1 138.45 -68.78)"  >
<path style="stroke: none; stroke-width: 1; stroke-dasharray: none; stroke-linecap: butt; stroke-dashoffset: 0; stroke-linejoin: miter; stroke-miterlimit: 4; fill: rgb(165,224,40); fill-rule: nonzero; opacity: 1;" vector-effect="non-scaling-stroke"  transform=" translate(-139.38, 201.09)" d="M 112.8916125477015 -272.5444620908296 C 148.68266127910053 -257.71932429472776 181.20321769707573 -235.98978320298738 208.59650045003164 -208.5965004500314 L 129.63624321753372 -129.6362432175337 C 112.61216919027295 -146.66031724479444 92.40165390226575 -160.16455182158228 70.158629266933 -169.37791429373596 Z" stroke-linecap="round" />
</g>
		<g transform="matrix(1 0 0 1 200.16 -7.06)"  >
<path style="stroke: none; stroke-width: 1; stroke-dasharray: none; stroke-linecap: butt; stroke-dashoffset: 0; stroke-linejoin: miter; stroke-miterlimit: 4; fill: rgb(122,218,44); fill-rule: nonzero; opacity: 1;" vector-effect="non-scaling-stroke"  transform=" translate(-201.09, 139.38)" d="M 208.59650045003153 -208.5965004500315 C 235.98978320298747 -181.2032176970756 257.7193242947277 -148.68266127910064 272.5444620908296 -112.89161254770164 L 169.3779142937359 -70.15862926693312 C 160.16455182158222 -92.4016539022658 146.6603172447944 -112.61216919027298 129.6362432175337 -129.63624321753372 Z" stroke-linecap="round" />
</g>
		<g transform="matrix(1 0 0 1 231.26 75.87)"  >
<path style="stroke: none; stroke-width: 1; stroke-dasharray: none; stroke-linecap: butt; stroke-dashoffset: 0; stroke-linejoin: miter; stroke-miterlimit: 4; fill: rgb(84,211,47); fill-rule: nonzero; opacity: 1;" vector-effect="non-scaling-stroke"  transform=" translate(-232.19, 56.45)" d="M 272.5444620908296 -112.89161254770148 C 287.36959988693144 -77.10056381630247 295.00000000000006 -38.73995198715137 295.00000000000006 -8.526512829121202e-14 L 183.33333333333331 0 C 183.33333333333331 -24.07567637619573 178.59127676588957 -47.915604631600445 169.37791429373587 -70.15862926693319 Z" stroke-linecap="round" />
</g>
		<g transform="matrix(0.2 -0.98 0.98 0.2 -305.9 71.65)" style=""  >
		<text xml:space="preserve" font-family="Times New Roman" font-size="19" font-style="normal" font-weight="bold" style="stroke: none; stroke-width: 1; stroke-dasharray: none; stroke-linecap: butt; stroke-dashoffset: 0; stroke-linejoin: miter; stroke-miterlimit: 4; fill: rgb(33,33,33); fill-rule: nonzero; opacity: 1; white-space: pre;" ><tspan x="-4.75" y="5.97" >2</tspan></text>
</g>
		<g transform="matrix(0.56 -0.83 0.83 0.56 -259.47 -40.44)" style=""  >
		<text xml:space="preserve" font-family="Times New Roman" font-size="19" font-style="normal" font-weight="bold" style="stroke: none; stroke-width: 1; stroke-dasharray: none; stroke-linecap: butt; stroke-dashoffset: 0; stroke-linejoin: miter; stroke-miterlimit: 4; fill: rgb(33,33,33); fill-rule: nonzero; opacity: 1; white-space: pre;" ><tspan x="-4.75" y="5.97" >4</tspan></text>
</g>
		<g transform="matrix(0.83 -0.56 0.56 0.83 -173.68 -126.23)" style=""  >
		<text xml:space="preserve" font-family="Times New Roman" font-size="19" font-style="normal" font-weight="bold" style="stroke: none; stroke-width: 1; stroke-dasharray: none; stroke-linecap: butt; stroke-dashoffset: 0; stroke-linejoin: miter; stroke-miterlimit: 4; fill: rgb(33,33,33); fill-rule: nonzero; opacity: 1; white-space: pre;" ><tspan x="-9.5" y="5.97" >10</tspan></text>
</g>
		<g transform="matrix(0.98 -0.2 0.2 0.98 -61.59 -172.66)" style=""  >
		<text xml:space="preserve" font-family="Times New Roman" font-size="19" font-style="normal" font-weight="bold" style="stroke: none; stroke-width: 1; stroke-dasharray: none; stroke-linecap: butt; stroke-dashoffset: 0; stroke-linejoin: miter; stroke-miterlimit: 4; fill: rgb(33,33,33); fill-rule: nonzero; opacity: 1; white-space: pre;" ><tspan x="-9.5" y="5.97" >15</tspan></text>
</g>
		<g transform="matrix(0.98 0.2 -0.2 0.98 59.74 -172.66)" style=""  >
		<text xml:space="preserve" font-family="Times New Roman" font-size="19" font-style="normal" font-weight="bold" style="stroke: none; stroke-width: 1; stroke-dasharray: none; stroke-linecap: butt; stroke-dashoffset: 0; stroke-linejoin: miter; stroke-miterlimit: 4; fill: rgb(33,33,33); fill-rule: nonzero; opacity: 1; white-space: pre;" ><tspan x="-9.5" y="5.97" >30</tspan></text>
</g>
		<g transform="matrix(0.83 0.56 -0.56 0.83 171.83 -126.23)" style=""  >
		<text xml:space="preserve" font-family="Times New Roman" font-size="19" font-style="normal" font-weight="bold" style="stroke: none; stroke-width: 1; stroke-dasharray: none; stroke-linecap: butt; stroke-dashoffset: 0; stroke-linejoin: miter; stroke-miterlimit: 4; fill: rgb(33,33,33); fill-rule: nonzero; opacity: 1; white-space: pre;" ><tspan x="-9.5" y="5.97" >50</tspan></text>
</g>
		<g transform="matrix(0.56 0.83 -0.83 0.56 257.62 -40.44)" style=""  >
		<text xml:space="preserve" font-family="Times New Roman" font-size="19" font-style="normal" font-weight="bold" style="stroke: none; stroke-width: 1; stroke-dasharray: none; stroke-linecap: butt; stroke-dashoffset: 0; stroke-linejoin: miter; stroke-miterlimit: 4; fill: rgb(33,33,33); fill-rule: nonzero; opacity: 1; white-space: pre;" ><tspan x="-9.5" y="5.97" >70</tspan></text>
</g>
		<g transform="matrix(0.2 0.98 -0.98 0.2 304.05 71.65)" style=""  >
		<text xml:space="preserve" font-family="Times New Roman" font-size="19" font-style="normal" font-weight="bold" style="stroke: none; stroke-width: 1; stroke-dasharray: none; stroke-linecap: butt; stroke-dashoffset: 0; stroke-linejoin: miter; stroke-miterlimit: 4; fill: rgb(33,33,33); fill-rule: nonzero; opacity: 1; white-space: pre;" ><tspan x="-14.25" y="5.97" >100</tspan></text>
</g>


</g>
</g>
</svg>
