<svg width="660" height="329" viewBox="0 0 660 329" fill="none" xmlns="http://www.w3.org/2000/svg">
<g clip-path="url(#clip0_1_5)">
<path d="M654.032 328.468C654.032 242.546 619.9 160.144 559.144 99.3881C498.388 38.6323 415.985 4.50001 330.064 4.5C244.142 4.49999 161.74 38.6322 100.984 99.388C40.2279 160.144 6.09566 242.546 6.09564 328.468L330.064 328.468H654.032Z" fill="#FF1A1A"/>
<path d="M654.032 328.468C654.032 242.546 619.9 160.144 559.144 99.3881C498.388 38.6323 415.985 4.50001 330.064 4.5C244.142 4.49999 161.74 38.6322 100.984 99.388C40.2279 160.144 6.09566 242.546 6.09564 328.468L330.064 328.468H654.032Z" fill="#FF1A1A"/>
<path d="M654.032 328.468C654.032 251.306 626.491 176.678 576.365 118.014C526.24 59.3503 456.821 20.5041 380.604 8.4665C304.387 -3.57106 226.375 11.9906 160.61 52.3507C94.845 92.7109 45.6449 155.219 21.8645 228.625L330.064 328.468H654.032Z" fill="#FAFF00"/>
<path d="M654.032 328.468C654.032 260.018 632.351 193.326 592.099 137.961C551.847 82.5966 495.094 41.4038 429.98 20.2928C364.867 -0.818332 294.739 -0.762789 229.659 20.4514C164.579 41.6656 107.891 82.9482 67.7269 138.377L330.064 328.468H654.032Z" fill="#7FFF00"/>
<path d="M654.032 328.468C654.032 268.771 637.537 210.235 606.369 159.321C575.201 108.407 530.571 67.0947 477.405 39.9445C424.239 12.7942 364.606 0.861804 305.087 5.46427C245.568 10.0667 188.477 31.0251 140.118 66.026L330.064 328.468H654.032Z" fill="#0038FF"/>
<path d="M654.032 328.468C654.032 277.394 641.956 227.043 618.79 181.525C595.624 136.007 562.025 96.6103 520.733 66.551C479.441 36.4916 431.627 16.6208 381.193 8.56013C330.759 0.499467 279.134 4.47731 230.53 20.1691L330.064 328.468H654.032Z" fill="#FA00FF"/>
<path d="M654.032 328.468C654.032 285.924 645.652 243.797 629.371 204.491C613.09 165.185 589.227 129.471 559.144 99.3881C529.061 69.3048 493.347 45.4415 454.041 29.1606C414.735 12.8797 372.608 4.5 330.064 4.5L330.064 328.468H654.032Z" fill="#00D1FF"/>
<path d="M654.032 328.468C654.032 259.887 632.268 193.075 591.874 137.652C551.48 82.2288 494.539 41.0545 429.251 20.0574L330.064 328.468H654.032Z" fill="#765604"/>
<path d="M654.032 328.468C654.032 277.224 641.876 226.71 618.562 181.076C595.248 135.443 561.441 95.9902 519.918 65.9596L330.064 328.468H654.032Z" fill="#8000FF"/>
<path d="M654.032 328.468C654.032 260.191 632.46 193.659 592.397 138.372L330.064 328.468H654.032Z" fill="#751437"/>
<path d="M654.032 328.468C654.032 294.176 648.587 260.101 637.902 227.516L330.064 328.468H654.032Z" fill="#FF7A00"/>
</g>
<defs>
<clipPath id="clip0_1_5">
<rect width="659" height="328" fill="white" transform="translate(0.563782 0.5)"/>
</clipPath>
</defs>
</svg>
